<svg id="svg" version="1.1" xmlns="http://www.w3.org/2000/svg" xmlns:xlink="http://www.w3.org/1999/xlink" width="400" height="400" viewBox="0, 0, 400,400"><g id="svgg"><path id="path0" d="M86.880 102.480 C 86.511 102.849,86.400 115.300,86.400 156.090 L 86.400 209.220 87.426 209.610 C 89.085 210.241,192.878 210.133,193.683 209.500 C 194.255 209.050,194.346 203.738,194.599 155.935 L 194.879 102.870 194.066 102.435 C 192.840 101.779,87.537 101.823,86.880 102.480 M206.396 102.605 C 205.834 103.282,205.987 208.608,206.551 209.521 C 206.993 210.236,312.932 210.215,313.497 209.500 C 314.119 208.710,314.538 103.098,313.920 102.480 C 313.112 101.672,207.068 101.795,206.396 102.605 M175.724 120.038 C 177.120 120.674,177.200 122.820,177.200 159.433 C 177.200 187.727,177.132 191.211,176.571 191.771 C 175.742 192.600,105.306 192.746,104.480 191.920 C 104.114 191.554,104.000 183.069,104.000 156.169 C 104.000 118.895,103.928 120.350,105.800 119.889 C 107.566 119.455,174.758 119.598,175.724 120.038 M295.685 120.300 C 296.715 121.484,297.079 190.824,296.060 191.746 C 294.925 192.773,225.204 192.746,224.176 191.719 C 223.370 190.913,223.676 121.097,224.490 120.100 C 225.229 119.194,294.893 119.390,295.685 120.300 M87.900 227.265 L 86.800 227.667 86.800 280.794 L 86.800 333.922 88.060 334.361 C 88.949 334.671,104.575 334.800,141.246 334.800 L 193.172 334.800 193.663 333.900 C 194.530 332.309,194.701 229.743,193.839 228.076 L 193.179 226.800 141.090 226.832 C 107.289 226.852,88.614 227.004,87.900 227.265 M206.652 227.700 C 206.337 228.876,206.337 332.724,206.652 333.900 L 206.893 334.800 259.982 334.800 L 313.072 334.800 313.536 333.781 C 313.880 333.025,314.000 319.381,314.000 280.800 C 314.000 242.219,313.880 228.575,313.536 227.819 L 313.072 226.800 259.982 226.800 L 206.893 226.800 206.652 227.700 M175.752 244.382 C 177.627 245.095,177.647 245.521,177.519 282.135 L 177.400 316.471 176.456 317.235 C 174.963 318.444,105.059 318.431,104.412 317.222 C 104.130 316.696,104.029 304.895,104.098 280.734 L 104.200 245.024 105.200 244.518 C 106.443 243.889,174.113 243.758,175.752 244.382 M295.824 244.568 C 296.906 245.359,297.267 315.428,296.197 317.060 L 295.582 318.000 260.200 318.000 L 224.818 318.000 224.203 317.060 C 223.329 315.727,223.470 245.720,224.349 244.661 C 225.125 243.726,294.548 243.635,295.824 244.568 " stroke="none" fill="#fbfbfc" fill-rule="evenodd"></path><path id="path1" d="M344.244 212.300 C 343.662 231.913,343.422 236.483,343.177 232.600 L 342.951 229.000 342.844 234.000 C 342.723 239.652,342.551 239.782,342.054 234.598 C 341.764 231.577,341.699 231.353,341.649 233.200 C 341.616 234.410,341.481 235.805,341.348 236.300 L 341.107 237.200 329.017 237.200 L 316.928 237.200 316.635 253.700 C 315.477 318.870,314.992 335.271,314.205 335.846 C 312.943 336.769,206.717 336.664,205.949 335.739 C 205.495 335.192,205.360 327.920,205.168 293.639 C 204.950 254.611,204.734 246.768,203.680 239.417 L 203.391 237.400 200.155 237.285 L 196.919 237.170 196.624 285.083 C 196.311 335.907,196.351 334.956,194.460 335.968 C 193.893 336.271,177.750 336.400,140.288 336.400 L 86.924 336.400 86.163 335.559 C 85.425 334.743,85.397 333.223,85.256 285.959 L 85.112 237.200 71.781 237.200 L 58.451 237.200 58.289 238.500 L 58.128 239.800 58.064 238.500 C 57.934 235.857,57.198 237.278,57.133 240.300 C 57.096 242.005,56.995 242.721,56.908 241.892 C 56.822 241.062,56.582 240.488,56.375 240.615 C 56.150 240.755,55.983 238.802,55.958 235.724 C 55.934 232.906,55.783 228.980,55.621 227.000 C 55.459 225.020,55.298 254.315,55.263 292.100 L 55.200 360.800 200.000 360.800 L 344.800 360.800 344.800 282.400 C 344.800 239.280,344.730 204.000,344.645 204.000 C 344.560 204.000,344.380 207.735,344.244 212.300 M106.654 250.900 C 106.414 254.964,105.958 267.211,105.195 290.047 C 104.978 296.563,104.800 304.871,104.800 308.508 L 104.800 315.122 106.060 315.561 C 108.390 316.373,175.053 316.160,175.368 315.339 C 175.508 314.976,175.497 299.406,175.346 280.739 L 175.070 246.800 140.983 246.800 L 106.896 246.800 106.654 250.900 M224.800 281.400 L 224.800 316.000 260.000 316.000 L 295.200 316.000 295.200 281.400 L 295.200 246.800 260.000 246.800 L 224.800 246.800 224.800 281.400 " stroke="none" fill="#177bc9" fill-rule="evenodd"></path><path id="path2" d="M55.787 73.870 C 55.081 74.576,55.177 102.057,55.944 119.200 L 56.239 125.800 56.404 119.600 L 56.569 113.400 56.800 119.800 C 56.927 123.320,57.071 125.300,57.120 124.200 C 57.169 123.100,57.320 121.525,57.457 120.700 L 57.705 119.200 71.452 119.200 L 85.200 119.200 85.200 142.734 C 85.200 182.690,85.636 209.579,86.294 210.237 C 87.250 211.193,193.853 211.050,195.096 210.091 L 195.991 209.400 196.389 177.600 C 196.608 160.110,196.790 139.815,196.794 132.500 L 196.800 119.200 200.000 119.200 C 201.760 119.200,203.210 119.335,203.222 119.500 C 203.276 120.247,204.380 126.380,204.752 128.000 C 205.021 129.170,205.171 143.656,205.183 169.411 C 205.198 204.596,205.270 209.121,205.823 209.911 L 206.445 210.800 260.174 210.800 C 302.682 210.800,313.983 210.696,314.292 210.300 C 314.520 210.007,314.879 200.618,315.160 187.600 C 315.423 175.390,315.895 157.570,316.208 148.000 C 316.522 138.430,316.784 128.035,316.790 124.900 L 316.800 119.200 328.939 119.200 L 341.078 119.200 341.512 118.300 L 341.946 117.400 341.973 118.300 C 341.988 118.795,342.156 119.200,342.346 119.200 C 342.746 119.200,343.201 112.996,343.590 102.200 L 343.864 94.600 343.932 103.967 C 344.041 119.009,344.307 114.529,344.572 93.200 C 344.738 79.858,344.686 73.596,344.415 74.000 C 344.053 74.539,343.828 74.296,343.952 73.502 C 344.064 72.787,56.503 73.155,55.787 73.870 M194.066 102.435 L 194.879 102.870 194.599 155.935 C 194.346 203.738,194.255 209.050,193.683 209.500 C 192.878 210.133,89.085 210.241,87.426 209.610 L 86.400 209.220 86.400 156.090 C 86.400 115.300,86.511 102.849,86.880 102.480 C 87.537 101.823,192.840 101.779,194.066 102.435 M313.920 102.480 C 314.538 103.098,314.119 208.710,313.497 209.500 C 312.932 210.215,206.993 210.236,206.551 209.521 C 205.987 208.608,205.834 103.282,206.396 102.605 C 207.068 101.795,313.112 101.672,313.920 102.480 M105.800 119.889 C 103.928 120.350,104.000 118.895,104.000 156.169 C 104.000 183.069,104.114 191.554,104.480 191.920 C 105.306 192.746,175.742 192.600,176.571 191.771 C 177.132 191.211,177.200 187.727,177.200 159.433 C 177.200 122.820,177.120 120.674,175.724 120.038 C 174.758 119.598,107.566 119.455,105.800 119.889 M224.490 120.100 C 223.676 121.097,223.370 190.913,224.176 191.719 C 225.204 192.746,294.925 192.773,296.060 191.746 C 297.079 190.824,296.715 121.484,295.685 120.300 C 294.893 119.390,225.229 119.194,224.490 120.100 M175.389 155.768 C 175.553 175.000,175.567 190.930,175.420 191.168 C 175.129 191.638,109.095 191.805,106.300 191.343 L 104.800 191.095 104.813 177.248 C 104.820 169.631,104.998 160.610,105.207 157.200 C 105.417 153.790,105.765 146.320,105.980 140.600 C 106.195 134.880,106.491 128.085,106.637 125.500 L 106.903 120.800 140.998 120.800 L 175.092 120.800 175.389 155.768 M295.292 155.900 C 295.403 175.205,295.418 191.135,295.324 191.300 C 295.230 191.465,279.323 191.600,259.976 191.600 L 224.800 191.600 224.800 156.200 L 224.800 120.800 259.944 120.800 L 295.089 120.800 295.292 155.900 M87.811 225.949 C 85.467 226.451,85.569 223.590,85.842 281.000 C 86.053 325.380,86.182 333.944,86.655 334.700 L 87.218 335.600 140.347 335.600 L 193.476 335.600 194.238 334.759 C 195.061 333.850,195.320 318.122,195.594 252.400 C 195.701 226.763,195.721 227.090,193.971 226.185 C 192.789 225.574,90.624 225.347,87.811 225.949 M206.256 226.338 C 205.332 227.359,205.423 333.823,206.349 334.939 C 206.855 335.548,211.114 335.600,260.269 335.600 L 313.641 335.600 314.220 334.213 C 314.717 333.025,314.800 325.204,314.800 279.836 L 314.800 226.845 313.911 226.223 C 312.412 225.173,207.209 225.285,206.256 226.338 M193.839 228.076 C 194.701 229.743,194.530 332.309,193.663 333.900 L 193.172 334.800 141.246 334.800 C 104.575 334.800,88.949 334.671,88.060 334.361 L 86.800 333.922 86.800 280.794 L 86.800 227.667 87.900 227.265 C 88.614 227.004,107.289 226.852,141.090 226.832 L 193.179 226.800 193.839 228.076 M313.536 227.819 C 313.880 228.575,314.000 242.219,314.000 280.800 C 314.000 319.381,313.880 333.025,313.536 333.781 L 313.072 334.800 259.982 334.800 L 206.893 334.800 206.652 333.900 C 206.337 332.724,206.337 228.876,206.652 227.700 L 206.893 226.800 259.982 226.800 L 313.072 226.800 313.536 227.819 M105.200 244.518 L 104.200 245.024 104.098 280.734 C 104.029 304.895,104.130 316.696,104.412 317.222 C 105.059 318.431,174.963 318.444,176.456 317.235 L 177.400 316.471 177.519 282.135 C 177.647 245.521,177.627 245.095,175.752 244.382 C 174.113 243.758,106.443 243.889,105.200 244.518 M224.349 244.661 C 223.470 245.720,223.329 315.727,224.203 317.060 L 224.818 318.000 260.200 318.000 L 295.582 318.000 296.197 317.060 C 297.267 315.428,296.906 245.359,295.824 244.568 C 294.548 243.635,225.125 243.726,224.349 244.661 M175.612 246.022 C 176.446 247.580,176.679 314.915,175.855 316.173 L 175.182 317.200 141.491 317.196 C 104.535 317.191,104.972 317.209,104.674 315.654 C 104.563 315.074,104.574 299.084,104.698 280.120 L 104.925 245.639 105.762 245.474 C 109.491 244.739,175.201 245.254,175.612 246.022 M295.414 245.900 C 295.979 247.217,296.158 314.652,295.601 315.998 L 295.103 317.200 259.998 317.200 L 224.893 317.200 224.652 316.300 C 224.331 315.103,224.329 248.054,224.650 246.450 L 224.900 245.200 260.007 245.200 C 293.062 245.200,295.132 245.241,295.414 245.900 " stroke="none" fill="#52b1ee" fill-rule="evenodd"></path><path id="path3" d="M344.311 103.300 L 344.222 113.400 344.011 104.000 L 343.800 94.600 343.496 103.400 C 343.108 114.642,342.775 119.200,342.344 119.200 C 342.155 119.200,341.988 118.795,341.973 118.300 L 341.946 117.400 341.512 118.300 L 341.078 119.200 328.939 119.200 L 316.800 119.200 316.800 124.304 C 316.800 127.111,316.531 137.956,316.203 148.404 C 314.853 191.317,314.543 209.600,315.162 209.600 C 315.788 209.600,315.962 206.364,316.460 185.500 L 316.945 165.200 329.073 165.200 L 341.200 165.200 341.206 163.100 C 341.213 160.603,341.953 161.221,342.044 163.800 L 342.100 165.400 342.448 163.600 C 342.640 162.610,342.955 160.900,343.148 159.800 L 343.500 157.800 343.628 159.600 C 343.892 163.335,344.316 146.458,344.614 120.300 C 344.785 105.395,344.806 93.200,344.662 93.200 C 344.518 93.200,344.360 97.745,344.311 103.300 M55.328 145.600 C 55.331 178.024,55.387 181.834,55.699 170.800 C 56.097 156.700,56.745 152.777,56.885 163.620 C 56.952 168.781,56.998 169.273,57.098 165.900 C 57.240 161.174,57.967 159.957,58.054 164.300 C 58.084 165.785,58.187 166.595,58.282 166.100 L 58.456 165.200 71.828 165.200 L 85.200 165.200 85.200 142.200 L 85.200 119.200 71.429 119.200 L 57.658 119.200 57.429 121.300 C 57.303 122.455,57.138 124.030,57.064 124.800 C 56.989 125.570,56.861 123.320,56.780 119.800 L 56.632 113.400 56.400 119.600 L 56.168 125.800 56.044 120.000 C 55.641 101.121,55.324 112.445,55.328 145.600 M196.794 132.500 C 196.790 139.815,196.608 160.110,196.389 177.600 L 195.991 209.400 195.096 210.091 C 194.025 210.917,194.706 211.049,195.824 210.232 C 196.573 209.684,196.605 208.891,196.741 187.417 L 196.883 165.169 200.141 165.284 L 203.400 165.400 203.641 167.643 C 203.774 168.877,204.039 170.137,204.230 170.443 C 204.421 170.749,204.690 172.440,204.827 174.200 C 204.964 175.960,205.096 166.690,205.121 153.600 C 205.149 138.494,205.014 129.143,204.752 128.000 C 204.380 126.380,203.276 120.247,203.222 119.500 C 203.210 119.335,201.760 119.200,200.000 119.200 L 196.800 119.200 196.794 132.500 M106.637 125.500 C 106.491 128.085,106.195 134.880,105.980 140.600 C 105.765 146.320,105.417 153.790,105.207 157.200 C 104.613 166.868,104.680 191.306,105.300 191.101 C 105.655 190.984,105.870 189.209,106.041 184.968 C 106.173 181.686,106.421 175.895,106.592 172.100 L 106.902 165.200 141.051 165.200 L 175.200 165.200 175.200 178.200 L 175.200 191.200 140.900 191.298 L 106.600 191.395 140.778 191.500 C 161.080 191.562,175.104 191.456,175.322 191.238 C 175.542 191.018,175.569 176.939,175.390 155.836 L 175.092 120.800 140.998 120.800 L 106.903 120.800 106.637 125.500 M224.800 143.000 L 224.800 165.200 260.000 165.200 L 295.200 165.200 295.200 143.000 L 295.200 120.800 260.000 120.800 L 224.800 120.800 224.800 143.000 M295.290 183.898 L 295.200 191.196 259.900 191.300 L 224.600 191.404 259.913 191.502 C 288.379 191.581,295.263 191.500,295.422 191.086 C 295.531 190.803,295.566 187.428,295.500 183.586 L 295.380 176.600 295.290 183.898 M85.290 194.926 C 85.201 209.072,85.335 210.809,86.514 210.794 C 86.818 210.790,86.775 210.645,86.400 210.409 C 85.891 210.087,85.768 207.802,85.590 195.315 L 85.381 180.600 85.290 194.926 M86.229 226.229 C 85.883 226.574,85.603 227.159,85.606 227.529 C 85.610 227.989,85.770 227.887,86.117 227.202 C 86.415 226.613,87.108 226.100,87.811 225.949 C 88.992 225.696,88.993 225.694,87.929 225.647 C 87.339 225.621,86.574 225.883,86.229 226.229 M194.058 226.207 C 196.018 227.271,195.957 221.825,195.110 321.063 C 195.049 328.137,195.113 333.742,195.252 333.517 C 195.459 333.181,196.200 254.822,196.200 233.277 C 196.200 226.769,195.802 225.599,193.600 225.625 C 193.270 225.629,193.476 225.891,194.058 226.207 M205.385 246.800 C 205.385 257.690,205.437 262.145,205.500 256.700 C 205.563 251.255,205.563 242.345,205.500 236.900 C 205.437 231.455,205.385 235.910,205.385 246.800 M314.958 233.800 C 314.958 236.880,315.021 238.087,315.097 236.482 C 315.173 234.878,315.173 232.358,315.096 230.882 C 315.019 229.407,314.957 230.720,314.958 233.800 M105.700 245.482 C 105.205 245.578,104.800 245.844,104.800 246.074 C 104.800 246.343,105.123 246.371,105.700 246.153 C 106.195 245.966,122.031 245.763,140.891 245.702 L 175.183 245.591 175.391 246.496 C 175.506 246.993,175.653 249.020,175.718 251.000 L 175.835 254.600 175.918 250.674 C 175.963 248.514,175.814 246.399,175.586 245.974 C 175.195 245.244,109.342 244.781,105.700 245.482 M242.300 245.500 C 252.035 245.560,267.965 245.560,277.700 245.500 C 287.435 245.440,279.470 245.391,260.000 245.391 C 240.530 245.391,232.565 245.440,242.300 245.500 M224.575 257.600 C 224.575 263.650,224.631 266.125,224.699 263.100 C 224.767 260.075,224.767 255.125,224.699 252.100 C 224.631 249.075,224.575 251.550,224.575 257.600 M295.789 284.800 C 295.789 299.870,295.839 306.035,295.900 298.500 C 295.961 290.965,295.961 278.635,295.900 271.100 C 295.839 263.565,295.789 269.730,295.789 284.800 M176.097 290.424 C 176.022 309.689,175.885 315.603,175.500 316.124 C 175.038 316.749,172.387 316.808,140.800 316.902 L 106.600 317.005 140.891 317.102 L 175.182 317.200 175.794 316.266 C 176.330 315.447,176.393 312.226,176.300 290.366 L 176.194 265.400 176.097 290.424 M85.790 297.600 C 85.790 313.550,85.839 320.075,85.900 312.100 C 85.960 304.125,85.960 291.075,85.900 283.100 C 85.839 275.125,85.790 281.650,85.790 297.600 M104.572 306.200 C 104.572 311.260,104.629 313.275,104.699 310.677 C 104.769 308.080,104.768 303.940,104.698 301.477 C 104.628 299.015,104.571 301.140,104.572 306.200 M242.300 317.100 C 252.035 317.160,267.965 317.160,277.700 317.100 C 287.435 317.040,279.470 316.991,260.000 316.991 C 240.530 316.991,232.565 317.040,242.300 317.100 M194.009 334.989 C 193.563 335.527,187.356 335.609,140.452 335.700 L 87.400 335.803 140.400 335.889 C 194.512 335.976,196.073 335.939,194.728 334.594 C 194.610 334.477,194.287 334.654,194.009 334.989 M206.349 335.300 C 206.868 335.961,209.842 335.995,260.149 335.901 L 313.400 335.803 260.239 335.700 C 218.530 335.619,206.941 335.490,206.439 335.099 C 205.873 334.657,205.863 334.680,206.349 335.300 " stroke="none" fill="#42a4e4" fill-rule="evenodd"></path><path id="path4" d="M344.446 140.200 C 344.195 151.033,343.750 161.495,343.622 159.600 L 343.500 157.800 343.148 159.800 C 342.955 160.900,342.640 162.610,342.448 163.600 L 342.100 165.400 342.044 163.800 C 341.953 161.221,341.213 160.603,341.206 163.100 L 341.200 165.200 329.000 165.200 L 316.800 165.200 316.772 170.900 C 316.703 184.960,315.763 209.346,315.283 209.506 C 315.018 209.594,314.800 209.922,314.800 210.233 C 314.800 210.719,307.040 210.800,260.208 210.800 L 205.615 210.800 205.422 209.900 C 205.316 209.405,205.162 200.720,205.080 190.600 C 204.968 176.825,204.802 171.898,204.418 171.000 C 204.137 170.340,203.792 168.810,203.653 167.600 L 203.400 165.400 200.141 165.284 L 196.883 165.169 196.741 187.417 C 196.605 208.891,196.573 209.684,195.824 210.232 C 194.411 211.265,86.169 211.063,85.614 210.026 C 85.343 209.520,85.200 201.645,85.200 187.226 L 85.200 165.200 71.828 165.200 L 58.456 165.200 58.282 166.100 C 58.187 166.595,58.084 165.785,58.054 164.300 C 57.967 159.957,57.240 161.174,57.098 165.900 C 56.998 169.273,56.952 168.781,56.885 163.620 C 56.724 151.187,56.085 157.675,55.586 176.800 C 55.022 198.431,55.574 242.968,56.378 240.600 C 56.452 240.380,56.642 240.920,56.800 241.800 C 57.038 243.130,57.096 242.877,57.143 240.300 C 57.200 237.193,57.808 236.061,58.111 238.500 L 58.272 239.800 58.336 238.500 L 58.400 237.200 71.798 237.200 L 85.196 237.200 85.302 279.100 L 85.407 321.000 85.500 275.000 C 85.551 249.700,85.595 228.518,85.597 227.929 C 85.604 225.429,81.585 225.599,140.529 225.609 C 204.209 225.619,196.200 224.516,196.200 233.277 C 196.200 267.797,195.486 332.779,195.096 333.800 C 194.214 336.107,197.551 335.974,140.576 335.987 C 79.257 336.002,86.296 336.705,85.973 330.534 L 85.747 326.200 85.673 330.638 C 85.610 334.487,85.697 335.164,86.331 335.738 C 87.234 336.555,192.943 336.780,194.460 335.968 C 196.351 334.956,196.311 335.906,196.624 285.098 L 196.919 237.200 200.036 237.200 C 203.806 237.200,203.479 236.688,204.017 243.441 C 204.882 254.304,205.096 253.726,205.149 240.389 C 205.192 229.318,205.293 227.245,205.823 226.489 L 206.445 225.600 260.174 225.600 C 308.559 225.600,313.954 225.663,314.424 226.229 C 314.849 226.741,314.941 236.849,314.914 280.129 L 314.881 333.400 315.601 302.200 C 315.996 285.040,316.456 263.395,316.623 254.100 L 316.926 237.200 329.017 237.200 L 341.107 237.200 341.348 236.300 C 341.481 235.805,341.616 234.410,341.649 233.200 C 341.699 231.353,341.764 231.577,342.054 234.598 C 342.551 239.782,342.723 239.652,342.844 234.000 L 342.951 229.000 343.187 232.600 C 343.402 235.903,343.441 235.623,343.653 229.200 C 343.780 225.350,344.096 216.530,344.354 209.600 C 344.636 202.006,344.778 184.445,344.709 165.400 C 344.646 148.020,344.528 136.680,344.446 140.200 M106.606 171.900 C 106.440 175.585,106.191 181.435,106.052 184.900 L 105.800 191.201 140.500 191.200 L 175.200 191.200 175.200 178.200 L 175.200 165.200 141.053 165.200 L 106.907 165.200 106.606 171.900 M224.800 178.200 L 224.800 191.200 260.000 191.200 L 295.200 191.200 295.200 178.200 L 295.200 165.200 260.000 165.200 L 224.800 165.200 224.800 178.200 M105.900 246.120 L 104.800 246.554 104.861 271.977 C 104.910 292.332,104.984 295.606,105.231 288.400 C 106.066 264.102,106.438 254.266,106.660 250.700 L 106.903 246.800 140.986 246.800 L 175.070 246.800 175.346 280.739 C 175.497 299.406,175.506 314.978,175.366 315.346 C 175.081 316.086,107.006 316.195,105.500 315.457 C 104.994 315.209,104.800 315.279,104.800 315.707 C 104.800 316.745,106.619 316.800,141.236 316.800 L 175.172 316.800 175.623 315.956 C 176.151 314.971,175.965 247.476,175.432 246.300 C 175.046 245.450,108.036 245.276,105.900 246.120 M224.800 246.200 C 224.800 246.729,228.978 246.800,260.000 246.800 L 295.200 246.800 295.200 281.400 L 295.200 316.000 260.000 316.000 C 236.800 316.000,224.800 316.136,224.800 316.400 C 224.800 317.219,295.067 316.921,295.390 316.100 C 295.716 315.270,295.667 247.809,295.339 246.500 L 295.113 245.600 259.957 245.600 C 228.973 245.600,224.800 245.671,224.800 246.200 M205.390 300.639 C 205.398 329.230,205.493 335.190,205.949 335.739 C 206.613 336.539,312.541 336.781,314.026 335.986 C 314.452 335.758,314.795 335.173,314.788 334.686 C 314.776 333.821,314.765 333.819,314.322 334.600 C 314.073 335.040,313.673 335.532,313.434 335.694 C 312.402 336.392,206.933 336.042,206.349 335.339 C 205.897 334.794,205.763 328.640,205.590 300.439 L 205.380 266.200 205.390 300.639 M224.588 292.000 C 224.588 305.090,224.638 310.445,224.700 303.900 C 224.761 297.355,224.761 286.645,224.700 280.100 C 224.638 273.555,224.588 278.910,224.588 292.000 " stroke="none" fill="#3999dd" fill-rule="evenodd"></path></g></svg>