<svg id="svg" version="1.1" xmlns="http://www.w3.org/2000/svg" xmlns:xlink="http://www.w3.org/1999/xlink" width="400" height="400" viewBox="0, 0, 400,400"><g id="svgg"><path id="path0" d="M151.746 151.751 C 150.545 153.118,151.339 166.107,152.674 166.920 C 152.964 167.096,153.221 167.636,153.246 168.120 C 153.284 168.840,153.327 168.868,153.481 168.271 C 153.592 167.842,153.903 167.631,154.235 167.758 C 154.546 167.877,154.800 167.801,154.800 167.587 C 154.800 167.370,156.200 167.200,157.992 167.200 L 161.185 167.200 161.300 176.100 L 161.416 185.000 161.508 173.929 C 161.587 164.449,161.691 162.766,162.233 162.224 C 162.794 161.663,164.884 161.604,180.733 161.696 L 198.600 161.800 198.808 175.000 C 198.923 182.260,199.058 187.549,199.108 186.754 C 199.159 185.959,199.561 182.643,200.002 179.386 C 200.443 176.130,200.917 171.110,201.057 168.233 C 201.196 165.355,201.471 162.685,201.669 162.300 C 202.003 161.649,203.276 161.600,219.752 161.600 C 240.043 161.600,238.800 161.369,238.800 165.131 L 238.800 167.200 242.000 167.200 C 243.760 167.200,245.315 167.185,245.455 167.166 C 245.596 167.147,245.863 167.372,246.049 167.666 C 246.302 168.065,246.389 168.074,246.394 167.700 C 246.406 166.727,247.149 167.216,247.307 168.300 C 247.465 169.380,247.475 169.375,247.834 168.000 C 248.160 166.752,248.225 166.968,248.431 170.000 C 248.562 171.916,248.682 168.727,248.707 162.691 C 248.734 156.107,248.607 152.072,248.376 152.215 C 248.169 152.343,248.000 152.168,248.000 151.827 C 248.000 150.971,152.498 150.896,151.746 151.751 M238.580 182.000 C 238.580 189.590,238.634 192.695,238.699 188.900 C 238.765 185.105,238.765 178.895,238.699 175.100 C 238.634 171.305,238.580 174.410,238.580 182.000 M169.401 179.563 C 169.238 185.527,169.262 190.566,169.454 190.863 C 169.804 191.407,170.694 178.936,170.764 172.500 L 170.800 169.200 180.993 169.200 L 191.186 169.200 191.300 178.700 L 191.415 188.200 191.508 178.500 L 191.600 168.800 180.647 168.800 L 169.695 168.800 169.401 179.563 M218.866 169.100 L 229.132 169.213 229.359 170.707 C 229.728 173.138,230.789 185.156,230.920 188.400 C 230.986 190.050,231.077 186.315,231.121 180.100 L 231.200 168.800 219.900 168.893 L 208.600 168.986 218.866 169.100 M201.376 185.200 C 201.376 191.470,201.432 194.035,201.499 190.900 C 201.567 187.765,201.567 182.635,201.499 179.500 C 201.432 176.365,201.376 178.930,201.376 185.200 M208.544 186.800 C 208.544 188.890,208.612 189.745,208.694 188.700 C 208.776 187.655,208.776 185.945,208.694 184.900 C 208.612 183.855,208.544 184.710,208.544 186.800 M191.200 190.527 C 191.200 191.120,190.159 191.198,180.900 191.300 L 170.600 191.414 180.913 191.507 C 191.268 191.600,192.739 191.406,191.449 190.116 C 191.312 189.979,191.200 190.164,191.200 190.527 M213.900 191.499 C 216.815 191.567,221.585 191.567,224.500 191.499 C 227.415 191.431,225.030 191.375,219.200 191.375 C 213.370 191.375,210.985 191.431,213.900 191.499 M161.728 194.800 C 161.728 196.230,161.801 196.815,161.889 196.100 C 161.978 195.385,161.978 194.215,161.889 193.500 C 161.801 192.785,161.728 193.370,161.728 194.800 M172.927 198.700 C 177.507 198.764,184.887 198.764,189.327 198.699 C 193.767 198.635,190.020 198.583,181.000 198.583 C 171.980 198.583,168.347 198.635,172.927 198.700 M210.900 198.700 C 215.465 198.764,222.935 198.764,227.500 198.700 C 232.065 198.635,228.330 198.583,219.200 198.583 C 210.070 198.583,206.335 198.635,210.900 198.700 " stroke="none" fill="#54b4ef" fill-rule="evenodd"></path><path id="path1" d="M151.241 223.100 L 151.200 248.800 200.000 248.800 L 248.800 248.800 248.800 224.000 C 248.800 207.733,248.662 199.200,248.400 199.200 C 248.180 199.200,247.985 199.875,247.968 200.700 L 247.935 202.200 247.386 201.000 C 247.083 200.340,246.828 200.036,246.818 200.324 C 246.808 200.612,246.620 200.736,246.400 200.600 C 246.180 200.464,246.000 200.543,246.000 200.776 C 246.000 201.043,244.667 201.200,242.400 201.200 L 238.800 201.200 238.796 218.300 C 238.791 236.629,238.713 237.913,237.536 239.177 C 236.320 240.482,203.345 240.465,202.162 239.159 C 201.446 238.367,201.388 237.322,201.200 221.659 C 201.062 210.146,200.902 205.927,200.683 208.000 C 199.723 217.075,198.805 229.579,198.803 233.611 C 198.801 237.134,198.653 238.432,198.177 239.111 L 197.555 240.000 181.003 240.000 C 163.735 240.000,162.647 239.901,162.026 238.269 C 161.829 237.749,161.535 229.196,161.374 219.262 L 161.082 201.200 157.974 201.200 C 155.845 201.200,154.814 201.043,154.698 200.700 C 154.567 200.310,154.384 200.321,153.865 200.749 C 153.294 201.221,153.200 201.208,153.200 200.662 C 153.200 200.283,152.975 200.111,152.646 200.238 C 152.267 200.383,151.963 199.967,151.687 198.925 C 151.402 197.849,151.271 204.972,151.241 223.100 M200.264 201.507 C 200.519 201.670,200.807 202.342,200.904 203.001 C 201.064 204.088,201.086 204.060,201.140 202.700 C 201.187 201.513,201.054 201.201,200.500 201.206 C 200.046 201.210,199.963 201.316,200.264 201.507 M170.736 210.900 C 170.279 211.618,169.893 231.229,170.333 231.397 C 171.186 231.723,191.134 231.631,191.331 231.300 C 191.429 231.135,191.414 226.455,191.297 220.900 L 191.085 210.800 180.942 210.800 C 175.364 210.800,170.771 210.845,170.736 210.900 M208.800 221.218 L 208.800 231.636 219.767 231.518 C 225.799 231.453,230.849 231.285,230.990 231.144 C 231.231 230.902,230.703 219.963,230.147 213.700 L 229.890 210.800 219.345 210.800 L 208.800 210.800 208.800 221.218 " stroke="none" fill="#1a7dca" fill-rule="evenodd"></path><path id="path2" d="M163.484 162.677 C 162.327 162.981,162.610 196.180,163.776 197.033 C 165.087 197.990,197.117 197.864,197.513 196.900 C 197.671 196.515,197.800 188.640,197.800 179.400 L 197.800 162.600 181.000 162.544 C 171.760 162.514,163.878 162.573,163.484 162.677 M202.583 162.900 C 202.477 163.175,202.438 171.050,202.496 180.400 L 202.600 197.400 219.667 197.400 C 229.054 197.400,236.831 197.302,236.951 197.183 C 237.070 197.063,237.293 189.307,237.447 179.946 L 237.726 162.926 236.763 162.669 C 234.807 162.145,202.790 162.362,202.583 162.900 M192.026 168.414 C 193.208 169.046,193.228 190.689,192.048 191.756 C 191.038 192.671,169.773 192.575,168.661 191.651 C 167.659 190.819,167.660 169.838,168.662 168.731 C 169.436 167.877,190.488 167.591,192.026 168.414 M231.501 168.500 C 232.317 169.522,232.567 190.752,231.773 191.629 C 230.802 192.703,209.290 192.833,208.229 191.771 C 207.409 190.952,207.271 169.289,208.080 168.480 C 208.783 167.777,230.939 167.796,231.501 168.500 M164.100 204.488 L 163.200 204.922 163.200 221.013 L 163.200 237.103 164.300 237.557 C 165.074 237.877,170.147 237.980,181.400 237.906 L 197.400 237.800 197.600 221.400 C 197.711 212.337,197.644 204.776,197.451 204.500 C 196.987 203.836,165.476 203.825,164.100 204.488 M202.643 204.633 C 202.326 205.459,202.326 236.541,202.643 237.367 C 202.930 238.115,234.249 238.342,236.174 237.610 L 237.200 237.220 237.200 221.024 C 237.200 205.421,237.172 204.813,236.426 204.414 C 235.009 203.655,202.938 203.863,202.643 204.633 M192.000 209.200 C 192.762 209.962,192.800 210.533,192.800 221.130 L 192.800 232.261 191.848 233.154 C 190.449 234.469,169.634 234.330,168.629 233.000 C 167.820 231.928,167.723 210.598,168.523 209.547 C 169.626 208.098,190.588 207.788,192.000 209.200 M230.651 208.639 C 232.228 209.062,232.400 210.318,232.400 221.375 C 232.400 231.150,232.345 231.980,231.636 232.856 L 230.872 233.800 219.936 233.919 C 209.144 234.037,208.991 234.027,208.300 233.175 C 207.299 231.940,207.230 210.706,208.223 209.289 C 208.839 208.409,227.751 207.861,230.651 208.639 " stroke="none" fill="#f9fbfc" fill-rule="evenodd"></path><path id="path3" d="M151.248 179.923 C 151.199 197.195,151.441 200.700,152.653 200.235 C 152.974 200.112,153.200 200.288,153.200 200.662 C 153.200 201.208,153.294 201.221,153.865 200.749 C 154.384 200.321,154.567 200.310,154.698 200.700 C 154.814 201.043,155.845 201.200,157.974 201.200 L 161.082 201.200 161.374 219.262 C 161.535 229.196,161.829 237.749,162.026 238.269 C 162.647 239.901,163.735 240.000,181.003 240.000 L 197.555 240.000 198.177 239.111 C 198.520 238.622,198.795 237.947,198.788 237.611 C 198.779 237.168,198.651 237.220,198.322 237.800 C 197.543 239.173,197.369 239.188,181.150 239.194 C 163.701 239.201,163.090 239.154,162.458 237.768 C 162.127 237.040,161.780 212.524,161.987 204.500 C 162.040 202.435,162.346 202.400,180.577 202.400 L 197.555 202.400 198.177 203.289 C 198.703 204.039,198.809 205.990,198.856 215.789 C 198.897 224.474,198.990 226.493,199.223 223.800 C 199.394 221.820,199.864 216.780,200.267 212.600 L 201.000 205.000 201.200 221.659 C 201.388 237.322,201.446 238.367,202.162 239.159 C 203.345 240.465,236.320 240.482,237.536 239.177 C 238.713 237.913,238.791 236.629,238.796 218.300 L 238.800 201.200 242.400 201.200 C 244.667 201.200,246.000 201.043,246.000 200.776 C 246.000 200.543,246.180 200.464,246.400 200.600 C 246.620 200.736,246.808 200.612,246.818 200.324 C 246.828 200.036,247.083 200.340,247.386 201.000 L 247.935 202.200 247.968 200.700 C 247.985 199.875,248.180 199.200,248.400 199.200 C 248.863 199.200,248.956 179.384,248.529 171.563 C 248.296 167.275,248.203 166.790,247.849 168.000 C 247.446 169.379,247.438 169.384,247.293 168.300 C 247.149 167.218,246.406 166.723,246.394 167.700 C 246.390 168.051,246.300 168.067,246.094 167.755 C 245.923 167.496,244.347 167.277,242.322 167.231 L 238.845 167.152 238.722 182.162 C 238.610 195.939,238.541 197.231,237.886 197.886 C 236.887 198.885,203.531 199.226,202.200 198.251 C 201.434 197.690,201.391 197.073,201.185 183.733 C 201.067 176.070,200.927 170.700,200.874 171.800 C 200.821 172.900,200.419 176.320,199.979 179.400 C 199.540 182.480,199.068 187.849,198.929 191.331 C 198.692 197.317,198.629 197.693,197.778 198.251 C 196.775 198.908,164.073 198.921,162.731 198.265 C 161.673 197.748,161.664 197.641,161.363 182.031 L 161.077 167.200 157.938 167.200 C 156.181 167.200,154.800 167.370,154.800 167.587 C 154.800 167.801,154.546 167.877,154.235 167.758 C 153.903 167.631,153.592 167.842,153.481 168.271 C 153.327 168.868,153.284 168.840,153.246 168.120 C 153.221 167.636,152.961 167.096,152.668 166.920 C 152.375 166.744,151.947 165.790,151.716 164.800 C 151.399 163.440,151.284 167.139,151.248 179.923 M170.666 174.900 C 170.524 178.035,170.288 182.985,170.142 185.900 L 169.876 191.200 180.492 191.200 C 190.278 191.200,191.118 191.145,191.254 190.500 C 191.335 190.115,191.343 185.165,191.270 179.500 L 191.139 169.200 181.032 169.200 L 170.925 169.200 170.666 174.900 M208.800 180.200 L 208.800 191.200 219.800 191.200 L 230.800 191.200 230.800 188.056 C 230.800 185.231,229.978 175.292,229.382 170.900 L 229.151 169.200 218.975 169.200 L 208.800 169.200 208.800 180.200 M201.140 202.700 C 201.086 204.060,201.064 204.088,200.904 203.001 C 200.807 202.342,200.519 201.670,200.264 201.507 C 199.963 201.316,200.046 201.210,200.500 201.206 C 201.054 201.201,201.187 201.513,201.140 202.700 M237.843 203.410 C 238.439 204.319,238.487 206.064,238.325 221.067 L 238.146 237.714 237.229 238.457 C 235.893 239.539,203.243 239.615,202.349 238.539 C 201.424 237.426,201.331 204.160,202.249 203.145 C 202.888 202.440,203.850 202.400,220.053 202.400 L 237.182 202.400 237.843 203.410 M169.900 210.629 L 168.800 211.226 168.800 221.190 C 168.800 231.034,168.811 231.162,169.689 231.777 C 171.320 232.920,191.018 232.687,191.644 231.518 C 192.149 230.574,191.944 211.280,191.419 210.431 C 190.968 209.702,171.276 209.882,169.900 210.629 M208.652 210.610 C 208.276 211.588,208.359 231.317,208.741 231.919 C 209.261 232.738,230.673 232.435,231.231 231.600 C 231.623 231.013,231.327 210.841,230.919 210.400 C 230.340 209.772,208.896 209.974,208.652 210.610 M191.297 220.900 C 191.414 226.455,191.429 231.135,191.331 231.300 C 191.134 231.631,171.186 231.723,170.333 231.397 C 169.893 231.229,170.279 211.618,170.736 210.900 C 170.771 210.845,175.364 210.800,180.942 210.800 L 191.085 210.800 191.297 220.900 M230.147 213.700 C 230.703 219.963,231.231 230.902,230.990 231.144 C 230.849 231.285,225.799 231.453,219.767 231.518 L 208.800 231.636 208.800 221.218 L 208.800 210.800 219.345 210.800 L 229.890 210.800 230.147 213.700 " stroke="none" fill="#40a1e3" fill-rule="evenodd"></path><path id="path4" d="M162.183 162.275 C 161.085 163.372,161.479 197.030,162.599 197.849 C 163.709 198.660,197.682 198.665,198.355 197.854 C 198.681 197.461,198.779 192.329,198.704 179.554 L 198.600 161.800 180.733 161.696 C 164.337 161.600,162.809 161.648,162.183 162.275 M201.621 162.361 C 201.086 163.361,201.545 197.192,202.103 197.900 C 202.732 198.697,236.924 198.619,237.724 197.819 C 238.614 196.929,238.942 163.326,238.071 162.300 C 237.109 161.168,202.228 161.227,201.621 162.361 M197.800 179.400 C 197.800 188.640,197.671 196.515,197.513 196.900 C 197.117 197.864,165.087 197.990,163.776 197.033 C 162.610 196.180,162.327 162.981,163.484 162.677 C 163.878 162.573,171.760 162.514,181.000 162.544 L 197.800 162.600 197.800 179.400 M236.763 162.669 L 237.726 162.926 237.447 179.946 C 237.293 189.307,237.070 197.063,236.951 197.183 C 236.831 197.302,229.054 197.400,219.667 197.400 L 202.600 197.400 202.496 180.400 C 202.438 171.050,202.477 163.175,202.583 162.900 C 202.790 162.362,234.807 162.145,236.763 162.669 M168.662 168.731 C 167.660 169.838,167.659 190.819,168.661 191.651 C 169.773 192.575,191.038 192.671,192.048 191.756 C 193.228 190.689,193.208 169.046,192.026 168.414 C 190.488 167.591,169.436 167.877,168.662 168.731 M208.080 168.480 C 207.271 169.289,207.409 190.952,208.229 191.771 C 209.290 192.833,230.802 192.703,231.773 191.629 C 232.567 190.752,232.317 169.522,231.501 168.500 C 230.939 167.796,208.783 167.777,208.080 168.480 M191.506 180.100 L 191.400 191.400 180.720 191.400 C 173.095 191.400,169.905 191.266,169.571 190.932 C 169.223 190.583,169.179 187.707,169.399 179.632 L 169.695 168.800 180.654 168.800 L 191.612 168.800 191.506 180.100 M231.200 179.950 L 231.200 191.100 229.950 191.350 C 229.262 191.488,224.231 191.600,218.768 191.600 L 208.836 191.600 208.570 190.181 C 208.423 189.400,208.409 186.565,208.539 183.881 C 208.668 181.196,208.780 176.705,208.787 173.900 L 208.800 168.800 220.000 168.800 L 231.200 168.800 231.200 179.950 M163.726 202.803 C 162.060 203.474,162.000 204.099,162.000 220.755 C 162.000 238.109,162.051 238.550,164.096 238.959 C 165.829 239.306,196.914 239.245,197.440 238.894 C 198.703 238.051,198.800 236.747,198.800 220.680 C 198.800 204.925,198.779 204.481,197.971 203.454 L 197.142 202.400 180.871 202.425 C 171.922 202.439,164.207 202.609,163.726 202.803 M202.205 203.337 C 201.328 204.674,201.463 237.472,202.349 238.539 C 203.243 239.615,235.893 239.539,237.229 238.457 L 238.146 237.714 238.322 221.157 C 238.494 204.969,238.480 204.578,237.685 203.600 L 236.871 202.600 219.853 202.488 L 202.835 202.375 202.205 203.337 M197.451 204.500 C 197.644 204.776,197.711 212.337,197.600 221.400 L 197.400 237.800 181.400 237.906 C 170.147 237.980,165.074 237.877,164.300 237.557 L 163.200 237.103 163.200 221.013 L 163.200 204.922 164.100 204.488 C 165.476 203.825,196.987 203.836,197.451 204.500 M236.426 204.414 C 237.172 204.813,237.200 205.421,237.200 221.024 L 237.200 237.220 236.174 237.610 C 234.249 238.342,202.930 238.115,202.643 237.367 C 202.326 236.541,202.326 205.459,202.643 204.633 C 202.938 203.863,235.009 203.655,236.426 204.414 M169.810 208.693 C 168.104 209.125,168.025 209.679,168.025 221.200 C 168.025 230.390,168.125 232.332,168.629 233.000 C 169.634 234.330,190.449 234.469,191.848 233.154 L 192.800 232.261 192.800 221.130 C 192.800 206.848,194.243 208.386,180.900 208.446 C 175.235 208.472,170.244 208.583,169.810 208.693 M208.223 209.289 C 207.230 210.706,207.299 231.940,208.300 233.175 C 208.991 234.027,209.144 234.037,219.936 233.919 L 230.872 233.800 231.636 232.856 C 232.549 231.727,232.823 211.765,231.951 209.853 C 231.314 208.453,230.949 208.412,219.323 208.405 C 208.946 208.400,208.839 208.409,208.223 209.289 M191.462 210.500 C 191.998 211.368,192.154 230.565,191.633 231.539 C 191.017 232.689,171.296 232.903,169.689 231.777 C 168.810 231.162,168.800 231.040,168.800 221.011 L 168.800 210.867 169.900 210.465 C 171.605 209.842,191.075 209.874,191.462 210.500 M230.919 210.400 C 231.327 210.841,231.623 231.013,231.231 231.600 C 230.673 232.435,209.261 232.738,208.741 231.919 C 208.361 231.319,208.276 211.589,208.650 210.615 C 208.892 209.984,230.344 209.777,230.919 210.400 " stroke="none" fill="#7eb6e1" fill-rule="evenodd"></path></g></svg>